<mxfile host="65bd71144e">
    <diagram name="PÃ¡gina-2" id="sVm2QsKjci8oJogHV9Fd">
        <mxGraphModel dx="1969" dy="2597" grid="1" gridSize="10" guides="1" tooltips="1" connect="1" arrows="1" fold="1" page="1" pageScale="1" pageWidth="1169" pageHeight="1200" math="0" shadow="0">
            <root>
                <mxCell id="0"/>
                <mxCell id="1" parent="0"/>
                <mxCell id="9-Qr9oNzBENTLA1hDaOj-59" style="edgeStyle=orthogonalEdgeStyle;rounded=0;orthogonalLoop=1;jettySize=auto;html=1;endArrow=ERoneToMany;endFill=0;exitX=0;exitY=0.5;exitDx=0;exitDy=0;startArrow=none;startFill=0;" parent="1" source="9-Qr9oNzBENTLA1hDaOj-77" target="9-Qr9oNzBENTLA1hDaOj-64" edge="1">
                    <mxGeometry relative="1" as="geometry"/>
                </mxCell>
                <mxCell id="9-Qr9oNzBENTLA1hDaOj-60" value="Videos" style="shape=table;startSize=30;container=1;collapsible=1;childLayout=tableLayout;fixedRows=1;rowLines=0;fontStyle=1;align=center;resizeLast=1;html=1;" parent="1" vertex="1">
                    <mxGeometry x="40" y="-720" width="390" height="180" as="geometry">
                        <mxRectangle x="110" y="120" width="70" height="30" as="alternateBounds"/>
                    </mxGeometry>
                </mxCell>
                <mxCell id="9-Qr9oNzBENTLA1hDaOj-61" value="" style="shape=tableRow;horizontal=0;startSize=0;swimlaneHead=0;swimlaneBody=0;fillColor=none;collapsible=0;dropTarget=0;points=[[0,0.5],[1,0.5]];portConstraint=eastwest;top=0;left=0;right=0;bottom=1;" parent="9-Qr9oNzBENTLA1hDaOj-60" vertex="1">
                    <mxGeometry y="30" width="390" height="30" as="geometry"/>
                </mxCell>
                <mxCell id="9-Qr9oNzBENTLA1hDaOj-62" value="PK" style="shape=partialRectangle;connectable=0;fillColor=none;top=0;left=0;bottom=0;right=0;fontStyle=1;overflow=hidden;whiteSpace=wrap;html=1;" parent="9-Qr9oNzBENTLA1hDaOj-61" vertex="1">
                    <mxGeometry width="30" height="30" as="geometry">
                        <mxRectangle width="30" height="30" as="alternateBounds"/>
                    </mxGeometry>
                </mxCell>
                <mxCell id="9-Qr9oNzBENTLA1hDaOj-63" value="Id" style="shape=partialRectangle;connectable=0;fillColor=none;top=0;left=0;bottom=0;right=0;align=left;spacingLeft=6;fontStyle=5;overflow=hidden;whiteSpace=wrap;html=1;" parent="9-Qr9oNzBENTLA1hDaOj-61" vertex="1">
                    <mxGeometry x="30" width="360" height="30" as="geometry">
                        <mxRectangle width="360" height="30" as="alternateBounds"/>
                    </mxGeometry>
                </mxCell>
                <mxCell id="9-Qr9oNzBENTLA1hDaOj-64" value="" style="shape=tableRow;horizontal=0;startSize=0;swimlaneHead=0;swimlaneBody=0;fillColor=none;collapsible=0;dropTarget=0;points=[[0,0.5],[1,0.5]];portConstraint=eastwest;top=0;left=0;right=0;bottom=0;" parent="9-Qr9oNzBENTLA1hDaOj-60" vertex="1">
                    <mxGeometry y="60" width="390" height="30" as="geometry"/>
                </mxCell>
                <mxCell id="9-Qr9oNzBENTLA1hDaOj-65" value="FK" style="shape=partialRectangle;connectable=0;fillColor=none;top=0;left=0;bottom=0;right=0;editable=1;overflow=hidden;fontStyle=1" parent="9-Qr9oNzBENTLA1hDaOj-64" vertex="1">
                    <mxGeometry width="30" height="30" as="geometry">
                        <mxRectangle width="30" height="30" as="alternateBounds"/>
                    </mxGeometry>
                </mxCell>
                <mxCell id="9-Qr9oNzBENTLA1hDaOj-66" value="patient_id" style="shape=partialRectangle;connectable=0;fillColor=none;top=0;left=0;bottom=0;right=0;align=left;spacingLeft=6;overflow=hidden;fontStyle=1" parent="9-Qr9oNzBENTLA1hDaOj-64" vertex="1">
                    <mxGeometry x="30" width="360" height="30" as="geometry">
                        <mxRectangle width="360" height="30" as="alternateBounds"/>
                    </mxGeometry>
                </mxCell>
                <mxCell id="9-Qr9oNzBENTLA1hDaOj-67" value="" style="shape=tableRow;horizontal=0;startSize=0;swimlaneHead=0;swimlaneBody=0;fillColor=none;collapsible=0;dropTarget=0;points=[[0,0.5],[1,0.5]];portConstraint=eastwest;top=0;left=0;right=0;bottom=0;" parent="9-Qr9oNzBENTLA1hDaOj-60" vertex="1">
                    <mxGeometry y="90" width="390" height="30" as="geometry"/>
                </mxCell>
                <mxCell id="9-Qr9oNzBENTLA1hDaOj-68" value="" style="shape=partialRectangle;connectable=0;fillColor=none;top=0;left=0;bottom=0;right=0;editable=1;overflow=hidden;whiteSpace=wrap;html=1;" parent="9-Qr9oNzBENTLA1hDaOj-67" vertex="1">
                    <mxGeometry width="30" height="30" as="geometry">
                        <mxRectangle width="30" height="30" as="alternateBounds"/>
                    </mxGeometry>
                </mxCell>
                <mxCell id="9-Qr9oNzBENTLA1hDaOj-69" value="date" style="shape=partialRectangle;connectable=0;fillColor=none;top=0;left=0;bottom=0;right=0;align=left;spacingLeft=6;overflow=hidden;whiteSpace=wrap;html=1;fontStyle=1" parent="9-Qr9oNzBENTLA1hDaOj-67" vertex="1">
                    <mxGeometry x="30" width="360" height="30" as="geometry">
                        <mxRectangle width="360" height="30" as="alternateBounds"/>
                    </mxGeometry>
                </mxCell>
                <mxCell id="9-Qr9oNzBENTLA1hDaOj-70" value="" style="shape=tableRow;horizontal=0;startSize=0;swimlaneHead=0;swimlaneBody=0;fillColor=none;collapsible=0;dropTarget=0;points=[[0,0.5],[1,0.5]];portConstraint=eastwest;top=0;left=0;right=0;bottom=0;" parent="9-Qr9oNzBENTLA1hDaOj-60" vertex="1">
                    <mxGeometry y="120" width="390" height="30" as="geometry"/>
                </mxCell>
                <mxCell id="9-Qr9oNzBENTLA1hDaOj-71" value="" style="shape=partialRectangle;connectable=0;fillColor=none;top=0;left=0;bottom=0;right=0;editable=1;overflow=hidden;whiteSpace=wrap;html=1;" parent="9-Qr9oNzBENTLA1hDaOj-70" vertex="1">
                    <mxGeometry width="30" height="30" as="geometry">
                        <mxRectangle width="30" height="30" as="alternateBounds"/>
                    </mxGeometry>
                </mxCell>
                <mxCell id="9-Qr9oNzBENTLA1hDaOj-72" value="hand" style="shape=partialRectangle;connectable=0;fillColor=none;top=0;left=0;bottom=0;right=0;align=left;spacingLeft=6;overflow=hidden;whiteSpace=wrap;html=1;fontStyle=1" parent="9-Qr9oNzBENTLA1hDaOj-70" vertex="1">
                    <mxGeometry x="30" width="360" height="30" as="geometry">
                        <mxRectangle width="360" height="30" as="alternateBounds"/>
                    </mxGeometry>
                </mxCell>
                <mxCell id="9-Qr9oNzBENTLA1hDaOj-73" value="" style="shape=tableRow;horizontal=0;startSize=0;swimlaneHead=0;swimlaneBody=0;fillColor=none;collapsible=0;dropTarget=0;points=[[0,0.5],[1,0.5]];portConstraint=eastwest;top=0;left=0;right=0;bottom=0;" parent="9-Qr9oNzBENTLA1hDaOj-60" vertex="1">
                    <mxGeometry y="150" width="390" height="30" as="geometry"/>
                </mxCell>
                <mxCell id="9-Qr9oNzBENTLA1hDaOj-74" value="" style="shape=partialRectangle;connectable=0;fillColor=none;top=0;left=0;bottom=0;right=0;editable=1;overflow=hidden;" parent="9-Qr9oNzBENTLA1hDaOj-73" vertex="1">
                    <mxGeometry width="30" height="30" as="geometry">
                        <mxRectangle width="30" height="30" as="alternateBounds"/>
                    </mxGeometry>
                </mxCell>
                <mxCell id="9-Qr9oNzBENTLA1hDaOj-75" value="clasification" style="shape=partialRectangle;connectable=0;fillColor=none;top=0;left=0;bottom=0;right=0;align=left;spacingLeft=6;overflow=hidden;fontStyle=1" parent="9-Qr9oNzBENTLA1hDaOj-73" vertex="1">
                    <mxGeometry x="30" width="360" height="30" as="geometry">
                        <mxRectangle width="360" height="30" as="alternateBounds"/>
                    </mxGeometry>
                </mxCell>
                <mxCell id="9-Qr9oNzBENTLA1hDaOj-76" value="Patient" style="shape=table;startSize=30;container=1;collapsible=1;childLayout=tableLayout;fixedRows=1;rowLines=0;fontStyle=1;align=center;resizeLast=1;html=1;" parent="1" vertex="1">
                    <mxGeometry x="600" y="-690" width="390" height="300" as="geometry">
                        <mxRectangle x="110" y="120" width="70" height="30" as="alternateBounds"/>
                    </mxGeometry>
                </mxCell>
                <mxCell id="9-Qr9oNzBENTLA1hDaOj-77" value="" style="shape=tableRow;horizontal=0;startSize=0;swimlaneHead=0;swimlaneBody=0;fillColor=none;collapsible=0;dropTarget=0;points=[[0,0.5],[1,0.5]];portConstraint=eastwest;top=0;left=0;right=0;bottom=1;" parent="9-Qr9oNzBENTLA1hDaOj-76" vertex="1">
                    <mxGeometry y="30" width="390" height="30" as="geometry"/>
                </mxCell>
                <mxCell id="9-Qr9oNzBENTLA1hDaOj-78" value="PK" style="shape=partialRectangle;connectable=0;fillColor=none;top=0;left=0;bottom=0;right=0;fontStyle=1;overflow=hidden;whiteSpace=wrap;html=1;" parent="9-Qr9oNzBENTLA1hDaOj-77" vertex="1">
                    <mxGeometry width="30" height="30" as="geometry">
                        <mxRectangle width="30" height="30" as="alternateBounds"/>
                    </mxGeometry>
                </mxCell>
                <mxCell id="9-Qr9oNzBENTLA1hDaOj-79" value="Id" style="shape=partialRectangle;connectable=0;fillColor=none;top=0;left=0;bottom=0;right=0;align=left;spacingLeft=6;fontStyle=5;overflow=hidden;whiteSpace=wrap;html=1;" parent="9-Qr9oNzBENTLA1hDaOj-77" vertex="1">
                    <mxGeometry x="30" width="360" height="30" as="geometry">
                        <mxRectangle width="360" height="30" as="alternateBounds"/>
                    </mxGeometry>
                </mxCell>
                <mxCell id="9-Qr9oNzBENTLA1hDaOj-80" value="" style="shape=tableRow;horizontal=0;startSize=0;swimlaneHead=0;swimlaneBody=0;fillColor=none;collapsible=0;dropTarget=0;points=[[0,0.5],[1,0.5]];portConstraint=eastwest;top=0;left=0;right=0;bottom=0;" parent="9-Qr9oNzBENTLA1hDaOj-76" vertex="1">
                    <mxGeometry y="60" width="390" height="30" as="geometry"/>
                </mxCell>
                <mxCell id="9-Qr9oNzBENTLA1hDaOj-81" value="" style="shape=partialRectangle;connectable=0;fillColor=none;top=0;left=0;bottom=0;right=0;editable=1;overflow=hidden;" parent="9-Qr9oNzBENTLA1hDaOj-80" vertex="1">
                    <mxGeometry width="30" height="30" as="geometry">
                        <mxRectangle width="30" height="30" as="alternateBounds"/>
                    </mxGeometry>
                </mxCell>
                <mxCell id="9-Qr9oNzBENTLA1hDaOj-82" value="username" style="shape=partialRectangle;connectable=0;fillColor=none;top=0;left=0;bottom=0;right=0;align=left;spacingLeft=6;overflow=hidden;fontStyle=1" parent="9-Qr9oNzBENTLA1hDaOj-80" vertex="1">
                    <mxGeometry x="30" width="360" height="30" as="geometry">
                        <mxRectangle width="360" height="30" as="alternateBounds"/>
                    </mxGeometry>
                </mxCell>
                <mxCell id="9-Qr9oNzBENTLA1hDaOj-83" value="" style="shape=tableRow;horizontal=0;startSize=0;swimlaneHead=0;swimlaneBody=0;fillColor=none;collapsible=0;dropTarget=0;points=[[0,0.5],[1,0.5]];portConstraint=eastwest;top=0;left=0;right=0;bottom=0;" parent="9-Qr9oNzBENTLA1hDaOj-76" vertex="1">
                    <mxGeometry y="90" width="390" height="30" as="geometry"/>
                </mxCell>
                <mxCell id="9-Qr9oNzBENTLA1hDaOj-84" value="" style="shape=partialRectangle;connectable=0;fillColor=none;top=0;left=0;bottom=0;right=0;editable=1;overflow=hidden;whiteSpace=wrap;html=1;" parent="9-Qr9oNzBENTLA1hDaOj-83" vertex="1">
                    <mxGeometry width="30" height="30" as="geometry">
                        <mxRectangle width="30" height="30" as="alternateBounds"/>
                    </mxGeometry>
                </mxCell>
                <mxCell id="9-Qr9oNzBENTLA1hDaOj-85" value="first_name" style="shape=partialRectangle;connectable=0;fillColor=none;top=0;left=0;bottom=0;right=0;align=left;spacingLeft=6;overflow=hidden;whiteSpace=wrap;html=1;fontStyle=1" parent="9-Qr9oNzBENTLA1hDaOj-83" vertex="1">
                    <mxGeometry x="30" width="360" height="30" as="geometry">
                        <mxRectangle width="360" height="30" as="alternateBounds"/>
                    </mxGeometry>
                </mxCell>
                <mxCell id="9-Qr9oNzBENTLA1hDaOj-86" value="" style="shape=tableRow;horizontal=0;startSize=0;swimlaneHead=0;swimlaneBody=0;fillColor=none;collapsible=0;dropTarget=0;points=[[0,0.5],[1,0.5]];portConstraint=eastwest;top=0;left=0;right=0;bottom=0;" parent="9-Qr9oNzBENTLA1hDaOj-76" vertex="1">
                    <mxGeometry y="120" width="390" height="30" as="geometry"/>
                </mxCell>
                <mxCell id="9-Qr9oNzBENTLA1hDaOj-87" value="" style="shape=partialRectangle;connectable=0;fillColor=none;top=0;left=0;bottom=0;right=0;editable=1;overflow=hidden;whiteSpace=wrap;html=1;" parent="9-Qr9oNzBENTLA1hDaOj-86" vertex="1">
                    <mxGeometry width="30" height="30" as="geometry">
                        <mxRectangle width="30" height="30" as="alternateBounds"/>
                    </mxGeometry>
                </mxCell>
                <mxCell id="9-Qr9oNzBENTLA1hDaOj-88" value="last_name" style="shape=partialRectangle;connectable=0;fillColor=none;top=0;left=0;bottom=0;right=0;align=left;spacingLeft=6;overflow=hidden;whiteSpace=wrap;html=1;fontStyle=1" parent="9-Qr9oNzBENTLA1hDaOj-86" vertex="1">
                    <mxGeometry x="30" width="360" height="30" as="geometry">
                        <mxRectangle width="360" height="30" as="alternateBounds"/>
                    </mxGeometry>
                </mxCell>
                <mxCell id="9-Qr9oNzBENTLA1hDaOj-89" value="" style="shape=tableRow;horizontal=0;startSize=0;swimlaneHead=0;swimlaneBody=0;fillColor=none;collapsible=0;dropTarget=0;points=[[0,0.5],[1,0.5]];portConstraint=eastwest;top=0;left=0;right=0;bottom=0;" parent="9-Qr9oNzBENTLA1hDaOj-76" vertex="1">
                    <mxGeometry y="150" width="390" height="30" as="geometry"/>
                </mxCell>
                <mxCell id="9-Qr9oNzBENTLA1hDaOj-90" value="" style="shape=partialRectangle;connectable=0;fillColor=none;top=0;left=0;bottom=0;right=0;editable=1;overflow=hidden;" parent="9-Qr9oNzBENTLA1hDaOj-89" vertex="1">
                    <mxGeometry width="30" height="30" as="geometry">
                        <mxRectangle width="30" height="30" as="alternateBounds"/>
                    </mxGeometry>
                </mxCell>
                <mxCell id="9-Qr9oNzBENTLA1hDaOj-91" value="password" style="shape=partialRectangle;connectable=0;fillColor=none;top=0;left=0;bottom=0;right=0;align=left;spacingLeft=6;overflow=hidden;fontStyle=1" parent="9-Qr9oNzBENTLA1hDaOj-89" vertex="1">
                    <mxGeometry x="30" width="360" height="30" as="geometry">
                        <mxRectangle width="360" height="30" as="alternateBounds"/>
                    </mxGeometry>
                </mxCell>
                <mxCell id="9-Qr9oNzBENTLA1hDaOj-92" value="" style="shape=tableRow;horizontal=0;startSize=0;swimlaneHead=0;swimlaneBody=0;fillColor=none;collapsible=0;dropTarget=0;points=[[0,0.5],[1,0.5]];portConstraint=eastwest;top=0;left=0;right=0;bottom=0;" parent="9-Qr9oNzBENTLA1hDaOj-76" vertex="1">
                    <mxGeometry y="180" width="390" height="30" as="geometry"/>
                </mxCell>
                <mxCell id="9-Qr9oNzBENTLA1hDaOj-93" value="" style="shape=partialRectangle;connectable=0;fillColor=none;top=0;left=0;bottom=0;right=0;editable=1;overflow=hidden;" parent="9-Qr9oNzBENTLA1hDaOj-92" vertex="1">
                    <mxGeometry width="30" height="30" as="geometry">
                        <mxRectangle width="30" height="30" as="alternateBounds"/>
                    </mxGeometry>
                </mxCell>
                <mxCell id="9-Qr9oNzBENTLA1hDaOj-94" value="birth_date" style="shape=partialRectangle;connectable=0;fillColor=none;top=0;left=0;bottom=0;right=0;align=left;spacingLeft=6;overflow=hidden;fontStyle=1" parent="9-Qr9oNzBENTLA1hDaOj-92" vertex="1">
                    <mxGeometry x="30" width="360" height="30" as="geometry">
                        <mxRectangle width="360" height="30" as="alternateBounds"/>
                    </mxGeometry>
                </mxCell>
                <mxCell id="9-Qr9oNzBENTLA1hDaOj-216" value="" style="shape=tableRow;horizontal=0;startSize=0;swimlaneHead=0;swimlaneBody=0;fillColor=none;collapsible=0;dropTarget=0;points=[[0,0.5],[1,0.5]];portConstraint=eastwest;top=0;left=0;right=0;bottom=0;" parent="9-Qr9oNzBENTLA1hDaOj-76" vertex="1">
                    <mxGeometry y="210" width="390" height="30" as="geometry"/>
                </mxCell>
                <mxCell id="9-Qr9oNzBENTLA1hDaOj-217" value="" style="shape=partialRectangle;connectable=0;fillColor=none;top=0;left=0;bottom=0;right=0;editable=1;overflow=hidden;" parent="9-Qr9oNzBENTLA1hDaOj-216" vertex="1">
                    <mxGeometry width="30" height="30" as="geometry">
                        <mxRectangle width="30" height="30" as="alternateBounds"/>
                    </mxGeometry>
                </mxCell>
                <mxCell id="9-Qr9oNzBENTLA1hDaOj-218" value="handedness" style="shape=partialRectangle;connectable=0;fillColor=none;top=0;left=0;bottom=0;right=0;align=left;spacingLeft=6;overflow=hidden;fontStyle=1" parent="9-Qr9oNzBENTLA1hDaOj-216" vertex="1">
                    <mxGeometry x="30" width="360" height="30" as="geometry">
                        <mxRectangle width="360" height="30" as="alternateBounds"/>
                    </mxGeometry>
                </mxCell>
                <mxCell id="9-Qr9oNzBENTLA1hDaOj-95" value="" style="shape=tableRow;horizontal=0;startSize=0;swimlaneHead=0;swimlaneBody=0;fillColor=none;collapsible=0;dropTarget=0;points=[[0,0.5],[1,0.5]];portConstraint=eastwest;top=0;left=0;right=0;bottom=0;" parent="9-Qr9oNzBENTLA1hDaOj-76" vertex="1">
                    <mxGeometry y="240" width="390" height="30" as="geometry"/>
                </mxCell>
                <mxCell id="9-Qr9oNzBENTLA1hDaOj-96" value="" style="shape=partialRectangle;connectable=0;fillColor=none;top=0;left=0;bottom=0;right=0;editable=1;overflow=hidden;" parent="9-Qr9oNzBENTLA1hDaOj-95" vertex="1">
                    <mxGeometry width="30" height="30" as="geometry">
                        <mxRectangle width="30" height="30" as="alternateBounds"/>
                    </mxGeometry>
                </mxCell>
                <mxCell id="9-Qr9oNzBENTLA1hDaOj-97" value="gendre" style="shape=partialRectangle;connectable=0;fillColor=none;top=0;left=0;bottom=0;right=0;align=left;spacingLeft=6;overflow=hidden;fontStyle=1" parent="9-Qr9oNzBENTLA1hDaOj-95" vertex="1">
                    <mxGeometry x="30" width="360" height="30" as="geometry">
                        <mxRectangle width="360" height="30" as="alternateBounds"/>
                    </mxGeometry>
                </mxCell>
                <mxCell id="9-Qr9oNzBENTLA1hDaOj-98" value="" style="shape=tableRow;horizontal=0;startSize=0;swimlaneHead=0;swimlaneBody=0;fillColor=none;collapsible=0;dropTarget=0;points=[[0,0.5],[1,0.5]];portConstraint=eastwest;top=0;left=0;right=0;bottom=0;" parent="9-Qr9oNzBENTLA1hDaOj-76" vertex="1">
                    <mxGeometry y="270" width="390" height="30" as="geometry"/>
                </mxCell>
                <mxCell id="9-Qr9oNzBENTLA1hDaOj-99" value="FK" style="shape=partialRectangle;connectable=0;fillColor=none;top=0;left=0;bottom=0;right=0;editable=1;overflow=hidden;fontStyle=1" parent="9-Qr9oNzBENTLA1hDaOj-98" vertex="1">
                    <mxGeometry width="30" height="30" as="geometry">
                        <mxRectangle width="30" height="30" as="alternateBounds"/>
                    </mxGeometry>
                </mxCell>
                <mxCell id="9-Qr9oNzBENTLA1hDaOj-100" value="doctor_id" style="shape=partialRectangle;connectable=0;fillColor=none;top=0;left=0;bottom=0;right=0;align=left;spacingLeft=6;overflow=hidden;fontStyle=1" parent="9-Qr9oNzBENTLA1hDaOj-98" vertex="1">
                    <mxGeometry x="30" width="360" height="30" as="geometry">
                        <mxRectangle width="360" height="30" as="alternateBounds"/>
                    </mxGeometry>
                </mxCell>
                <mxCell id="9-Qr9oNzBENTLA1hDaOj-101" style="edgeStyle=orthogonalEdgeStyle;rounded=0;orthogonalLoop=1;jettySize=auto;html=1;exitX=0;exitY=0.5;exitDx=0;exitDy=0;entryX=0;entryY=0.5;entryDx=0;entryDy=0;startArrow=none;startFill=0;endArrow=ERoneToMany;endFill=0;" parent="1" source="9-Qr9oNzBENTLA1hDaOj-103" target="9-Qr9oNzBENTLA1hDaOj-98" edge="1">
                    <mxGeometry relative="1" as="geometry"/>
                </mxCell>
                <mxCell id="9-Qr9oNzBENTLA1hDaOj-102" value="Doctor" style="shape=table;startSize=30;container=1;collapsible=1;childLayout=tableLayout;fixedRows=1;rowLines=0;fontStyle=1;align=center;resizeLast=1;html=1;" parent="1" vertex="1">
                    <mxGeometry x="585" y="-290" width="390" height="180" as="geometry">
                        <mxRectangle x="110" y="120" width="70" height="30" as="alternateBounds"/>
                    </mxGeometry>
                </mxCell>
                <mxCell id="9-Qr9oNzBENTLA1hDaOj-103" value="" style="shape=tableRow;horizontal=0;startSize=0;swimlaneHead=0;swimlaneBody=0;fillColor=none;collapsible=0;dropTarget=0;points=[[0,0.5],[1,0.5]];portConstraint=eastwest;top=0;left=0;right=0;bottom=1;" parent="9-Qr9oNzBENTLA1hDaOj-102" vertex="1">
                    <mxGeometry y="30" width="390" height="30" as="geometry"/>
                </mxCell>
                <mxCell id="9-Qr9oNzBENTLA1hDaOj-104" value="PK" style="shape=partialRectangle;connectable=0;fillColor=none;top=0;left=0;bottom=0;right=0;fontStyle=1;overflow=hidden;whiteSpace=wrap;html=1;" parent="9-Qr9oNzBENTLA1hDaOj-103" vertex="1">
                    <mxGeometry width="30" height="30" as="geometry">
                        <mxRectangle width="30" height="30" as="alternateBounds"/>
                    </mxGeometry>
                </mxCell>
                <mxCell id="9-Qr9oNzBENTLA1hDaOj-105" value="Id" style="shape=partialRectangle;connectable=0;fillColor=none;top=0;left=0;bottom=0;right=0;align=left;spacingLeft=6;fontStyle=5;overflow=hidden;whiteSpace=wrap;html=1;" parent="9-Qr9oNzBENTLA1hDaOj-103" vertex="1">
                    <mxGeometry x="30" width="360" height="30" as="geometry">
                        <mxRectangle width="360" height="30" as="alternateBounds"/>
                    </mxGeometry>
                </mxCell>
                <mxCell id="9-Qr9oNzBENTLA1hDaOj-106" value="" style="shape=tableRow;horizontal=0;startSize=0;swimlaneHead=0;swimlaneBody=0;fillColor=none;collapsible=0;dropTarget=0;points=[[0,0.5],[1,0.5]];portConstraint=eastwest;top=0;left=0;right=0;bottom=0;" parent="9-Qr9oNzBENTLA1hDaOj-102" vertex="1">
                    <mxGeometry y="60" width="390" height="30" as="geometry"/>
                </mxCell>
                <mxCell id="9-Qr9oNzBENTLA1hDaOj-107" value="" style="shape=partialRectangle;connectable=0;fillColor=none;top=0;left=0;bottom=0;right=0;editable=1;overflow=hidden;" parent="9-Qr9oNzBENTLA1hDaOj-106" vertex="1">
                    <mxGeometry width="30" height="30" as="geometry">
                        <mxRectangle width="30" height="30" as="alternateBounds"/>
                    </mxGeometry>
                </mxCell>
                <mxCell id="9-Qr9oNzBENTLA1hDaOj-108" value="username" style="shape=partialRectangle;connectable=0;fillColor=none;top=0;left=0;bottom=0;right=0;align=left;spacingLeft=6;overflow=hidden;fontStyle=1" parent="9-Qr9oNzBENTLA1hDaOj-106" vertex="1">
                    <mxGeometry x="30" width="360" height="30" as="geometry">
                        <mxRectangle width="360" height="30" as="alternateBounds"/>
                    </mxGeometry>
                </mxCell>
                <mxCell id="9-Qr9oNzBENTLA1hDaOj-109" value="" style="shape=tableRow;horizontal=0;startSize=0;swimlaneHead=0;swimlaneBody=0;fillColor=none;collapsible=0;dropTarget=0;points=[[0,0.5],[1,0.5]];portConstraint=eastwest;top=0;left=0;right=0;bottom=0;" parent="9-Qr9oNzBENTLA1hDaOj-102" vertex="1">
                    <mxGeometry y="90" width="390" height="30" as="geometry"/>
                </mxCell>
                <mxCell id="9-Qr9oNzBENTLA1hDaOj-110" value="" style="shape=partialRectangle;connectable=0;fillColor=none;top=0;left=0;bottom=0;right=0;editable=1;overflow=hidden;whiteSpace=wrap;html=1;" parent="9-Qr9oNzBENTLA1hDaOj-109" vertex="1">
                    <mxGeometry width="30" height="30" as="geometry">
                        <mxRectangle width="30" height="30" as="alternateBounds"/>
                    </mxGeometry>
                </mxCell>
                <mxCell id="9-Qr9oNzBENTLA1hDaOj-111" value="first_name" style="shape=partialRectangle;connectable=0;fillColor=none;top=0;left=0;bottom=0;right=0;align=left;spacingLeft=6;overflow=hidden;whiteSpace=wrap;html=1;fontStyle=1" parent="9-Qr9oNzBENTLA1hDaOj-109" vertex="1">
                    <mxGeometry x="30" width="360" height="30" as="geometry">
                        <mxRectangle width="360" height="30" as="alternateBounds"/>
                    </mxGeometry>
                </mxCell>
                <mxCell id="9-Qr9oNzBENTLA1hDaOj-112" value="" style="shape=tableRow;horizontal=0;startSize=0;swimlaneHead=0;swimlaneBody=0;fillColor=none;collapsible=0;dropTarget=0;points=[[0,0.5],[1,0.5]];portConstraint=eastwest;top=0;left=0;right=0;bottom=0;" parent="9-Qr9oNzBENTLA1hDaOj-102" vertex="1">
                    <mxGeometry y="120" width="390" height="30" as="geometry"/>
                </mxCell>
                <mxCell id="9-Qr9oNzBENTLA1hDaOj-113" value="" style="shape=partialRectangle;connectable=0;fillColor=none;top=0;left=0;bottom=0;right=0;editable=1;overflow=hidden;whiteSpace=wrap;html=1;" parent="9-Qr9oNzBENTLA1hDaOj-112" vertex="1">
                    <mxGeometry width="30" height="30" as="geometry">
                        <mxRectangle width="30" height="30" as="alternateBounds"/>
                    </mxGeometry>
                </mxCell>
                <mxCell id="9-Qr9oNzBENTLA1hDaOj-114" value="last_name" style="shape=partialRectangle;connectable=0;fillColor=none;top=0;left=0;bottom=0;right=0;align=left;spacingLeft=6;overflow=hidden;whiteSpace=wrap;html=1;fontStyle=1" parent="9-Qr9oNzBENTLA1hDaOj-112" vertex="1">
                    <mxGeometry x="30" width="360" height="30" as="geometry">
                        <mxRectangle width="360" height="30" as="alternateBounds"/>
                    </mxGeometry>
                </mxCell>
                <mxCell id="9-Qr9oNzBENTLA1hDaOj-115" value="" style="shape=tableRow;horizontal=0;startSize=0;swimlaneHead=0;swimlaneBody=0;fillColor=none;collapsible=0;dropTarget=0;points=[[0,0.5],[1,0.5]];portConstraint=eastwest;top=0;left=0;right=0;bottom=0;" parent="9-Qr9oNzBENTLA1hDaOj-102" vertex="1">
                    <mxGeometry y="150" width="390" height="30" as="geometry"/>
                </mxCell>
                <mxCell id="9-Qr9oNzBENTLA1hDaOj-116" value="" style="shape=partialRectangle;connectable=0;fillColor=none;top=0;left=0;bottom=0;right=0;editable=1;overflow=hidden;" parent="9-Qr9oNzBENTLA1hDaOj-115" vertex="1">
                    <mxGeometry width="30" height="30" as="geometry">
                        <mxRectangle width="30" height="30" as="alternateBounds"/>
                    </mxGeometry>
                </mxCell>
                <mxCell id="9-Qr9oNzBENTLA1hDaOj-117" value="password" style="shape=partialRectangle;connectable=0;fillColor=none;top=0;left=0;bottom=0;right=0;align=left;spacingLeft=6;overflow=hidden;fontStyle=1" parent="9-Qr9oNzBENTLA1hDaOj-115" vertex="1">
                    <mxGeometry x="30" width="360" height="30" as="geometry">
                        <mxRectangle width="360" height="30" as="alternateBounds"/>
                    </mxGeometry>
                </mxCell>
                <mxCell id="9-Qr9oNzBENTLA1hDaOj-118" value="Admin" style="shape=table;startSize=30;container=1;collapsible=1;childLayout=tableLayout;fixedRows=1;rowLines=0;fontStyle=1;align=center;resizeLast=1;html=1;" parent="1" vertex="1">
                    <mxGeometry x="40" y="-290" width="390" height="180" as="geometry">
                        <mxRectangle x="110" y="120" width="70" height="30" as="alternateBounds"/>
                    </mxGeometry>
                </mxCell>
                <mxCell id="9-Qr9oNzBENTLA1hDaOj-119" value="" style="shape=tableRow;horizontal=0;startSize=0;swimlaneHead=0;swimlaneBody=0;fillColor=none;collapsible=0;dropTarget=0;points=[[0,0.5],[1,0.5]];portConstraint=eastwest;top=0;left=0;right=0;bottom=1;" parent="9-Qr9oNzBENTLA1hDaOj-118" vertex="1">
                    <mxGeometry y="30" width="390" height="30" as="geometry"/>
                </mxCell>
                <mxCell id="9-Qr9oNzBENTLA1hDaOj-120" value="PK" style="shape=partialRectangle;connectable=0;fillColor=none;top=0;left=0;bottom=0;right=0;fontStyle=1;overflow=hidden;whiteSpace=wrap;html=1;" parent="9-Qr9oNzBENTLA1hDaOj-119" vertex="1">
                    <mxGeometry width="30" height="30" as="geometry">
                        <mxRectangle width="30" height="30" as="alternateBounds"/>
                    </mxGeometry>
                </mxCell>
                <mxCell id="9-Qr9oNzBENTLA1hDaOj-121" value="Id" style="shape=partialRectangle;connectable=0;fillColor=none;top=0;left=0;bottom=0;right=0;align=left;spacingLeft=6;fontStyle=5;overflow=hidden;whiteSpace=wrap;html=1;" parent="9-Qr9oNzBENTLA1hDaOj-119" vertex="1">
                    <mxGeometry x="30" width="360" height="30" as="geometry">
                        <mxRectangle width="360" height="30" as="alternateBounds"/>
                    </mxGeometry>
                </mxCell>
                <mxCell id="9-Qr9oNzBENTLA1hDaOj-122" value="" style="shape=tableRow;horizontal=0;startSize=0;swimlaneHead=0;swimlaneBody=0;fillColor=none;collapsible=0;dropTarget=0;points=[[0,0.5],[1,0.5]];portConstraint=eastwest;top=0;left=0;right=0;bottom=0;" parent="9-Qr9oNzBENTLA1hDaOj-118" vertex="1">
                    <mxGeometry y="60" width="390" height="30" as="geometry"/>
                </mxCell>
                <mxCell id="9-Qr9oNzBENTLA1hDaOj-123" value="" style="shape=partialRectangle;connectable=0;fillColor=none;top=0;left=0;bottom=0;right=0;editable=1;overflow=hidden;" parent="9-Qr9oNzBENTLA1hDaOj-122" vertex="1">
                    <mxGeometry width="30" height="30" as="geometry">
                        <mxRectangle width="30" height="30" as="alternateBounds"/>
                    </mxGeometry>
                </mxCell>
                <mxCell id="9-Qr9oNzBENTLA1hDaOj-124" value="username" style="shape=partialRectangle;connectable=0;fillColor=none;top=0;left=0;bottom=0;right=0;align=left;spacingLeft=6;overflow=hidden;fontStyle=1" parent="9-Qr9oNzBENTLA1hDaOj-122" vertex="1">
                    <mxGeometry x="30" width="360" height="30" as="geometry">
                        <mxRectangle width="360" height="30" as="alternateBounds"/>
                    </mxGeometry>
                </mxCell>
                <mxCell id="9-Qr9oNzBENTLA1hDaOj-125" value="" style="shape=tableRow;horizontal=0;startSize=0;swimlaneHead=0;swimlaneBody=0;fillColor=none;collapsible=0;dropTarget=0;points=[[0,0.5],[1,0.5]];portConstraint=eastwest;top=0;left=0;right=0;bottom=0;" parent="9-Qr9oNzBENTLA1hDaOj-118" vertex="1">
                    <mxGeometry y="90" width="390" height="30" as="geometry"/>
                </mxCell>
                <mxCell id="9-Qr9oNzBENTLA1hDaOj-126" value="" style="shape=partialRectangle;connectable=0;fillColor=none;top=0;left=0;bottom=0;right=0;editable=1;overflow=hidden;whiteSpace=wrap;html=1;" parent="9-Qr9oNzBENTLA1hDaOj-125" vertex="1">
                    <mxGeometry width="30" height="30" as="geometry">
                        <mxRectangle width="30" height="30" as="alternateBounds"/>
                    </mxGeometry>
                </mxCell>
                <mxCell id="9-Qr9oNzBENTLA1hDaOj-127" value="first_name" style="shape=partialRectangle;connectable=0;fillColor=none;top=0;left=0;bottom=0;right=0;align=left;spacingLeft=6;overflow=hidden;whiteSpace=wrap;html=1;fontStyle=1" parent="9-Qr9oNzBENTLA1hDaOj-125" vertex="1">
                    <mxGeometry x="30" width="360" height="30" as="geometry">
                        <mxRectangle width="360" height="30" as="alternateBounds"/>
                    </mxGeometry>
                </mxCell>
                <mxCell id="9-Qr9oNzBENTLA1hDaOj-128" value="" style="shape=tableRow;horizontal=0;startSize=0;swimlaneHead=0;swimlaneBody=0;fillColor=none;collapsible=0;dropTarget=0;points=[[0,0.5],[1,0.5]];portConstraint=eastwest;top=0;left=0;right=0;bottom=0;" parent="9-Qr9oNzBENTLA1hDaOj-118" vertex="1">
                    <mxGeometry y="120" width="390" height="30" as="geometry"/>
                </mxCell>
                <mxCell id="9-Qr9oNzBENTLA1hDaOj-129" value="" style="shape=partialRectangle;connectable=0;fillColor=none;top=0;left=0;bottom=0;right=0;editable=1;overflow=hidden;whiteSpace=wrap;html=1;" parent="9-Qr9oNzBENTLA1hDaOj-128" vertex="1">
                    <mxGeometry width="30" height="30" as="geometry">
                        <mxRectangle width="30" height="30" as="alternateBounds"/>
                    </mxGeometry>
                </mxCell>
                <mxCell id="9-Qr9oNzBENTLA1hDaOj-130" value="last_name" style="shape=partialRectangle;connectable=0;fillColor=none;top=0;left=0;bottom=0;right=0;align=left;spacingLeft=6;overflow=hidden;whiteSpace=wrap;html=1;fontStyle=1" parent="9-Qr9oNzBENTLA1hDaOj-128" vertex="1">
                    <mxGeometry x="30" width="360" height="30" as="geometry">
                        <mxRectangle width="360" height="30" as="alternateBounds"/>
                    </mxGeometry>
                </mxCell>
                <mxCell id="9-Qr9oNzBENTLA1hDaOj-131" value="" style="shape=tableRow;horizontal=0;startSize=0;swimlaneHead=0;swimlaneBody=0;fillColor=none;collapsible=0;dropTarget=0;points=[[0,0.5],[1,0.5]];portConstraint=eastwest;top=0;left=0;right=0;bottom=0;" parent="9-Qr9oNzBENTLA1hDaOj-118" vertex="1">
                    <mxGeometry y="150" width="390" height="30" as="geometry"/>
                </mxCell>
                <mxCell id="9-Qr9oNzBENTLA1hDaOj-132" value="" style="shape=partialRectangle;connectable=0;fillColor=none;top=0;left=0;bottom=0;right=0;editable=1;overflow=hidden;" parent="9-Qr9oNzBENTLA1hDaOj-131" vertex="1">
                    <mxGeometry width="30" height="30" as="geometry">
                        <mxRectangle width="30" height="30" as="alternateBounds"/>
                    </mxGeometry>
                </mxCell>
                <mxCell id="9-Qr9oNzBENTLA1hDaOj-133" value="password" style="shape=partialRectangle;connectable=0;fillColor=none;top=0;left=0;bottom=0;right=0;align=left;spacingLeft=6;overflow=hidden;fontStyle=1" parent="9-Qr9oNzBENTLA1hDaOj-131" vertex="1">
                    <mxGeometry x="30" width="360" height="30" as="geometry">
                        <mxRectangle width="360" height="30" as="alternateBounds"/>
                    </mxGeometry>
                </mxCell>
                <mxCell id="9-Qr9oNzBENTLA1hDaOj-134" value="monitors" style="text;html=1;align=center;verticalAlign=middle;resizable=0;points=[];autosize=1;strokeColor=none;fillColor=none;" parent="1" vertex="1">
                    <mxGeometry x="510" y="-340" width="70" height="30" as="geometry"/>
                </mxCell>
                <mxCell id="9-Qr9oNzBENTLA1hDaOj-135" value="has" style="text;html=1;align=center;verticalAlign=middle;resizable=0;points=[];autosize=1;strokeColor=none;fillColor=none;" parent="1" vertex="1">
                    <mxGeometry x="480" y="-682" width="40" height="30" as="geometry"/>
                </mxCell>
                <mxCell id="9-Qr9oNzBENTLA1hDaOj-144" value="Medicine" style="shape=table;startSize=30;container=1;collapsible=1;childLayout=tableLayout;fixedRows=1;rowLines=0;fontStyle=1;align=center;resizeLast=1;html=1;" parent="1" vertex="1">
                    <mxGeometry x="40" y="-1130" width="390" height="90" as="geometry">
                        <mxRectangle x="110" y="120" width="70" height="30" as="alternateBounds"/>
                    </mxGeometry>
                </mxCell>
                <mxCell id="9-Qr9oNzBENTLA1hDaOj-145" value="" style="shape=tableRow;horizontal=0;startSize=0;swimlaneHead=0;swimlaneBody=0;fillColor=none;collapsible=0;dropTarget=0;points=[[0,0.5],[1,0.5]];portConstraint=eastwest;top=0;left=0;right=0;bottom=1;" parent="9-Qr9oNzBENTLA1hDaOj-144" vertex="1">
                    <mxGeometry y="30" width="390" height="30" as="geometry"/>
                </mxCell>
                <mxCell id="9-Qr9oNzBENTLA1hDaOj-146" value="PK" style="shape=partialRectangle;connectable=0;fillColor=none;top=0;left=0;bottom=0;right=0;fontStyle=1;overflow=hidden;whiteSpace=wrap;html=1;" parent="9-Qr9oNzBENTLA1hDaOj-145" vertex="1">
                    <mxGeometry width="30" height="30" as="geometry">
                        <mxRectangle width="30" height="30" as="alternateBounds"/>
                    </mxGeometry>
                </mxCell>
                <mxCell id="9-Qr9oNzBENTLA1hDaOj-147" value="Id" style="shape=partialRectangle;connectable=0;fillColor=none;top=0;left=0;bottom=0;right=0;align=left;spacingLeft=6;fontStyle=5;overflow=hidden;whiteSpace=wrap;html=1;" parent="9-Qr9oNzBENTLA1hDaOj-145" vertex="1">
                    <mxGeometry x="30" width="360" height="30" as="geometry">
                        <mxRectangle width="360" height="30" as="alternateBounds"/>
                    </mxGeometry>
                </mxCell>
                <mxCell id="9-Qr9oNzBENTLA1hDaOj-148" value="" style="shape=tableRow;horizontal=0;startSize=0;swimlaneHead=0;swimlaneBody=0;fillColor=none;collapsible=0;dropTarget=0;points=[[0,0.5],[1,0.5]];portConstraint=eastwest;top=0;left=0;right=0;bottom=0;" parent="9-Qr9oNzBENTLA1hDaOj-144" vertex="1">
                    <mxGeometry y="60" width="390" height="30" as="geometry"/>
                </mxCell>
                <mxCell id="9-Qr9oNzBENTLA1hDaOj-149" value="" style="shape=partialRectangle;connectable=0;fillColor=none;top=0;left=0;bottom=0;right=0;editable=1;overflow=hidden;" parent="9-Qr9oNzBENTLA1hDaOj-148" vertex="1">
                    <mxGeometry width="30" height="30" as="geometry">
                        <mxRectangle width="30" height="30" as="alternateBounds"/>
                    </mxGeometry>
                </mxCell>
                <mxCell id="9-Qr9oNzBENTLA1hDaOj-150" value="name" style="shape=partialRectangle;connectable=0;fillColor=none;top=0;left=0;bottom=0;right=0;align=left;spacingLeft=6;overflow=hidden;fontStyle=1" parent="9-Qr9oNzBENTLA1hDaOj-148" vertex="1">
                    <mxGeometry x="30" width="360" height="30" as="geometry">
                        <mxRectangle width="360" height="30" as="alternateBounds"/>
                    </mxGeometry>
                </mxCell>
                <mxCell id="9-Qr9oNzBENTLA1hDaOj-186" value="PatientMedicine" style="shape=table;startSize=30;container=1;collapsible=1;childLayout=tableLayout;fixedRows=1;rowLines=0;fontStyle=1;align=center;resizeLast=1;html=1;" parent="1" vertex="1">
                    <mxGeometry x="590" y="-1130" width="390" height="210" as="geometry">
                        <mxRectangle x="110" y="120" width="70" height="30" as="alternateBounds"/>
                    </mxGeometry>
                </mxCell>
                <mxCell id="9-Qr9oNzBENTLA1hDaOj-187" value="" style="shape=tableRow;horizontal=0;startSize=0;swimlaneHead=0;swimlaneBody=0;fillColor=none;collapsible=0;dropTarget=0;points=[[0,0.5],[1,0.5]];portConstraint=eastwest;top=0;left=0;right=0;bottom=1;" parent="9-Qr9oNzBENTLA1hDaOj-186" vertex="1">
                    <mxGeometry y="30" width="390" height="30" as="geometry"/>
                </mxCell>
                <mxCell id="9-Qr9oNzBENTLA1hDaOj-188" value="PK" style="shape=partialRectangle;connectable=0;fillColor=none;top=0;left=0;bottom=0;right=0;fontStyle=1;overflow=hidden;whiteSpace=wrap;html=1;" parent="9-Qr9oNzBENTLA1hDaOj-187" vertex="1">
                    <mxGeometry width="30" height="30" as="geometry">
                        <mxRectangle width="30" height="30" as="alternateBounds"/>
                    </mxGeometry>
                </mxCell>
                <mxCell id="9-Qr9oNzBENTLA1hDaOj-189" value="Id" style="shape=partialRectangle;connectable=0;fillColor=none;top=0;left=0;bottom=0;right=0;align=left;spacingLeft=6;fontStyle=5;overflow=hidden;whiteSpace=wrap;html=1;" parent="9-Qr9oNzBENTLA1hDaOj-187" vertex="1">
                    <mxGeometry x="30" width="360" height="30" as="geometry">
                        <mxRectangle width="360" height="30" as="alternateBounds"/>
                    </mxGeometry>
                </mxCell>
                <mxCell id="9-Qr9oNzBENTLA1hDaOj-190" value="" style="shape=tableRow;horizontal=0;startSize=0;swimlaneHead=0;swimlaneBody=0;fillColor=none;collapsible=0;dropTarget=0;points=[[0,0.5],[1,0.5]];portConstraint=eastwest;top=0;left=0;right=0;bottom=0;" parent="9-Qr9oNzBENTLA1hDaOj-186" vertex="1">
                    <mxGeometry y="60" width="390" height="30" as="geometry"/>
                </mxCell>
                <mxCell id="9-Qr9oNzBENTLA1hDaOj-191" value="FK" style="shape=partialRectangle;connectable=0;fillColor=none;top=0;left=0;bottom=0;right=0;editable=1;overflow=hidden;fontStyle=1" parent="9-Qr9oNzBENTLA1hDaOj-190" vertex="1">
                    <mxGeometry width="30" height="30" as="geometry">
                        <mxRectangle width="30" height="30" as="alternateBounds"/>
                    </mxGeometry>
                </mxCell>
                <mxCell id="9-Qr9oNzBENTLA1hDaOj-192" value="patient_id" style="shape=partialRectangle;connectable=0;fillColor=none;top=0;left=0;bottom=0;right=0;align=left;spacingLeft=6;overflow=hidden;fontStyle=1" parent="9-Qr9oNzBENTLA1hDaOj-190" vertex="1">
                    <mxGeometry x="30" width="360" height="30" as="geometry">
                        <mxRectangle width="360" height="30" as="alternateBounds"/>
                    </mxGeometry>
                </mxCell>
                <mxCell id="9-Qr9oNzBENTLA1hDaOj-219" value="" style="shape=tableRow;horizontal=0;startSize=0;swimlaneHead=0;swimlaneBody=0;fillColor=none;collapsible=0;dropTarget=0;points=[[0,0.5],[1,0.5]];portConstraint=eastwest;top=0;left=0;right=0;bottom=0;" parent="9-Qr9oNzBENTLA1hDaOj-186" vertex="1">
                    <mxGeometry y="90" width="390" height="30" as="geometry"/>
                </mxCell>
                <mxCell id="9-Qr9oNzBENTLA1hDaOj-220" value="FK" style="shape=partialRectangle;connectable=0;fillColor=none;top=0;left=0;bottom=0;right=0;editable=1;overflow=hidden;whiteSpace=wrap;html=1;" parent="9-Qr9oNzBENTLA1hDaOj-219" vertex="1">
                    <mxGeometry width="30" height="30" as="geometry">
                        <mxRectangle width="30" height="30" as="alternateBounds"/>
                    </mxGeometry>
                </mxCell>
                <mxCell id="9-Qr9oNzBENTLA1hDaOj-221" value="first_name" style="shape=partialRectangle;connectable=0;fillColor=none;top=0;left=0;bottom=0;right=0;align=left;spacingLeft=6;overflow=hidden;whiteSpace=wrap;html=1;fontStyle=1" parent="9-Qr9oNzBENTLA1hDaOj-219" vertex="1">
                    <mxGeometry x="30" width="360" height="30" as="geometry">
                        <mxRectangle width="360" height="30" as="alternateBounds"/>
                    </mxGeometry>
                </mxCell>
                <mxCell id="9-Qr9oNzBENTLA1hDaOj-193" value="" style="shape=tableRow;horizontal=0;startSize=0;swimlaneHead=0;swimlaneBody=0;fillColor=none;collapsible=0;dropTarget=0;points=[[0,0.5],[1,0.5]];portConstraint=eastwest;top=0;left=0;right=0;bottom=0;" parent="9-Qr9oNzBENTLA1hDaOj-186" vertex="1">
                    <mxGeometry y="120" width="390" height="30" as="geometry"/>
                </mxCell>
                <mxCell id="9-Qr9oNzBENTLA1hDaOj-194" value="" style="shape=partialRectangle;connectable=0;fillColor=none;top=0;left=0;bottom=0;right=0;editable=1;overflow=hidden;whiteSpace=wrap;html=1;" parent="9-Qr9oNzBENTLA1hDaOj-193" vertex="1">
                    <mxGeometry width="30" height="30" as="geometry">
                        <mxRectangle width="30" height="30" as="alternateBounds"/>
                    </mxGeometry>
                </mxCell>
                <mxCell id="9-Qr9oNzBENTLA1hDaOj-195" value="start_date" style="shape=partialRectangle;connectable=0;fillColor=none;top=0;left=0;bottom=0;right=0;align=left;spacingLeft=6;overflow=hidden;whiteSpace=wrap;html=1;fontStyle=1" parent="9-Qr9oNzBENTLA1hDaOj-193" vertex="1">
                    <mxGeometry x="30" width="360" height="30" as="geometry">
                        <mxRectangle width="360" height="30" as="alternateBounds"/>
                    </mxGeometry>
                </mxCell>
                <mxCell id="9-Qr9oNzBENTLA1hDaOj-196" value="" style="shape=tableRow;horizontal=0;startSize=0;swimlaneHead=0;swimlaneBody=0;fillColor=none;collapsible=0;dropTarget=0;points=[[0,0.5],[1,0.5]];portConstraint=eastwest;top=0;left=0;right=0;bottom=0;" parent="9-Qr9oNzBENTLA1hDaOj-186" vertex="1">
                    <mxGeometry y="150" width="390" height="30" as="geometry"/>
                </mxCell>
                <mxCell id="9-Qr9oNzBENTLA1hDaOj-197" value="" style="shape=partialRectangle;connectable=0;fillColor=none;top=0;left=0;bottom=0;right=0;editable=1;overflow=hidden;whiteSpace=wrap;html=1;" parent="9-Qr9oNzBENTLA1hDaOj-196" vertex="1">
                    <mxGeometry width="30" height="30" as="geometry">
                        <mxRectangle width="30" height="30" as="alternateBounds"/>
                    </mxGeometry>
                </mxCell>
                <mxCell id="9-Qr9oNzBENTLA1hDaOj-198" value="end_date" style="shape=partialRectangle;connectable=0;fillColor=none;top=0;left=0;bottom=0;right=0;align=left;spacingLeft=6;overflow=hidden;whiteSpace=wrap;html=1;fontStyle=1" parent="9-Qr9oNzBENTLA1hDaOj-196" vertex="1">
                    <mxGeometry x="30" width="360" height="30" as="geometry">
                        <mxRectangle width="360" height="30" as="alternateBounds"/>
                    </mxGeometry>
                </mxCell>
                <mxCell id="9-Qr9oNzBENTLA1hDaOj-199" value="" style="shape=tableRow;horizontal=0;startSize=0;swimlaneHead=0;swimlaneBody=0;fillColor=none;collapsible=0;dropTarget=0;points=[[0,0.5],[1,0.5]];portConstraint=eastwest;top=0;left=0;right=0;bottom=0;" parent="9-Qr9oNzBENTLA1hDaOj-186" vertex="1">
                    <mxGeometry y="180" width="390" height="30" as="geometry"/>
                </mxCell>
                <mxCell id="9-Qr9oNzBENTLA1hDaOj-200" value="" style="shape=partialRectangle;connectable=0;fillColor=none;top=0;left=0;bottom=0;right=0;editable=1;overflow=hidden;" parent="9-Qr9oNzBENTLA1hDaOj-199" vertex="1">
                    <mxGeometry width="30" height="30" as="geometry">
                        <mxRectangle width="30" height="30" as="alternateBounds"/>
                    </mxGeometry>
                </mxCell>
                <mxCell id="9-Qr9oNzBENTLA1hDaOj-201" value="dose" style="shape=partialRectangle;connectable=0;fillColor=none;top=0;left=0;bottom=0;right=0;align=left;spacingLeft=6;overflow=hidden;fontStyle=1" parent="9-Qr9oNzBENTLA1hDaOj-199" vertex="1">
                    <mxGeometry x="30" width="360" height="30" as="geometry">
                        <mxRectangle width="360" height="30" as="alternateBounds"/>
                    </mxGeometry>
                </mxCell>
                <mxCell id="9-Qr9oNzBENTLA1hDaOj-228" style="edgeStyle=orthogonalEdgeStyle;rounded=0;orthogonalLoop=1;jettySize=auto;html=1;endArrow=ERoneToMany;endFill=0;startArrow=none;startFill=0;entryX=0;entryY=0.5;entryDx=0;entryDy=0;" parent="1" source="9-Qr9oNzBENTLA1hDaOj-77" target="9-Qr9oNzBENTLA1hDaOj-190" edge="1">
                    <mxGeometry relative="1" as="geometry">
                        <mxPoint x="650" y="-830" as="sourcePoint"/>
                        <mxPoint x="480" y="-830" as="targetPoint"/>
                        <Array as="points">
                            <mxPoint x="570" y="-645"/>
                            <mxPoint x="570" y="-1055"/>
                        </Array>
                    </mxGeometry>
                </mxCell>
                <mxCell id="9-Qr9oNzBENTLA1hDaOj-229" style="edgeStyle=orthogonalEdgeStyle;rounded=0;orthogonalLoop=1;jettySize=auto;html=1;endArrow=ERoneToMany;endFill=0;exitX=1;exitY=0.5;exitDx=0;exitDy=0;startArrow=none;startFill=0;entryX=0;entryY=0.5;entryDx=0;entryDy=0;" parent="1" source="9-Qr9oNzBENTLA1hDaOj-145" target="9-Qr9oNzBENTLA1hDaOj-219" edge="1">
                    <mxGeometry relative="1" as="geometry">
                        <mxPoint x="570" y="-960" as="sourcePoint"/>
                        <mxPoint x="400" y="-960" as="targetPoint"/>
                    </mxGeometry>
                </mxCell>
                <mxCell id="9-Qr9oNzBENTLA1hDaOj-230" value="is assigned" style="text;html=1;align=center;verticalAlign=middle;resizable=0;points=[];autosize=1;strokeColor=none;fillColor=none;" parent="1" vertex="1">
                    <mxGeometry x="570" y="-860" width="80" height="30" as="geometry"/>
                </mxCell>
                <mxCell id="9-Qr9oNzBENTLA1hDaOj-231" value="is assigned" style="text;html=1;align=center;verticalAlign=middle;resizable=0;points=[];autosize=1;strokeColor=none;fillColor=none;" parent="1" vertex="1">
                    <mxGeometry x="440" y="-1130" width="80" height="30" as="geometry"/>
                </mxCell>
            </root>
        </mxGraphModel>
    </diagram>
</mxfile>